HIERARCHY
ROOT Root
{
  OFFSET 5.99197 12.1404 34.5829
  CHANNELS 6 Xposition Yposition Zposition Zrotation Xrotation Yrotation
  JOINT Spine
  {
    OFFSET 5.3114 0 0
    CHANNELS 3 Zrotation Xrotation Yrotation
    JOINT Spine1
    {
      OFFSET 2.79004 0 0
      CHANNELS 3 Zrotation Xrotation Yrotation
      JOINT Neck
      {
        OFFSET 1.43377 0 0
        CHANNELS 3 Zrotation Xrotation Yrotation
        JOINT Head
        {
          OFFSET 1.86043 0 0
          CHANNELS 3 Zrotation Xrotation Yrotation
          End Site
          {
            OFFSET 0 0 0
          }
        }
      }
      JOINT LeftArm
      {
        OFFSET 0.0387506 0 2.55754
        CHANNELS 3 Zrotation Xrotation Yrotation
        JOINT LeftForeArm
        {
          OFFSET 4.24845 0 0
          CHANNELS 3 Zrotation Xrotation Yrotation
          JOINT LeftHand
          {
            OFFSET 4.01008 0 0
            CHANNELS 3 Zrotation Xrotation Yrotation
            End Site
            {
              OFFSET 0 0 0
            }
          }
        }
      }
      JOINT RightArm
      {
        OFFSET 0.0387506 0 -2.55754
        CHANNELS 3 Zrotation Xrotation Yrotation
        JOINT RightForeArm
        {
          OFFSET -4.24845 0 0
          CHANNELS 3 Zrotation Xrotation Yrotation
          JOINT RightHand
          {
            OFFSET -4.01009 0 0
            CHANNELS 3 Zrotation Xrotation Yrotation
            End Site
            {
              OFFSET 0 0 0
            }
          }
        }
      }
    }
  }
  JOINT LeftUpLeg
  {
    OFFSET -1.23318 0 2.05692
    CHANNELS 3 Zrotation Xrotation Yrotation
    JOINT LeftLeg
    {
      OFFSET 5.46397 0 0
      CHANNELS 3 Zrotation Xrotation Yrotation
      JOINT LeftFoot
      {
        OFFSET 4.68898 0 0
        CHANNELS 3 Zrotation Xrotation Yrotation
        End Site
        {
          OFFSET 0 0 0
        }
      }
    }
  }
  JOINT RightUpLeg
  {
    OFFSET -1.24454 0 -2.05007
    CHANNELS 3 Zrotation Xrotation Yrotation
    JOINT RightLeg
    {
      OFFSET -5.46397 0 0
      CHANNELS 3 Zrotation Xrotation Yrotation
      JOINT RightFoot
      {
        OFFSET -4.68901 0 0
        CHANNELS 3 Zrotation Xrotation Yrotation
        End Site
        {
          OFFSET 0 0 0
        }
      }
    }
  }
}
MOTION
Frames:	21
Frame Time:	0.0416667
5.99197 12.1404 34.5829 -75.3622 -71.5301 -166.734 -5.6087 -2.85598 -3.05778 -13.4899 -1.06586 5.93473 -17.8561 -1.60975 -10.2794 44.0482 2.42933 14.3323 -29.4574 -41.5754 -144.367 22.9364 0.674228 13.3218 3.30256 33.3637 173.465 178.448 -57.0831 -111.676 23.4408 0.749063 13.6098 2.0408 22.1556 174.057 1.72306 -24.9938 172.638 -25.1215 -1.24455 -1.07397 35.2795 -21.172 -167.772 172.104 -25.733 175.073 -35.9287 -1.25931 -1.41523 30.6353 -22.1331 -172.622 
5.9753 12.142 34.6036 -75.4714 -71.0403 -167.336 -4.81304 -2.84206 -3.04935 -14.5014 -1.16314 6.48054 -18.6289 -1.37777 -10.3369 41.8696 1.41094 13.2122 -33.0962 -38.1343 -148.051 22.2236 0.572383 12.9139 3.89401 37.8197 173.12 176.92 -56.8841 -113.464 23.3532 0.735979 13.5601 2.09951 22.7208 174.033 1.60676 -25.0604 172.928 -25.7324 -1.26738 -1.0878 36.0159 -21.1475 -167.466 171.858 -25.8877 174.611 -35.422 -1.22814 -1.39846 29.8186 -22.186 -172.938 
5.96133 12.1436 34.6118 -75.74 -70.1955 -167.562 -4.41893 -2.79324 -3.57411 -15.1864 -1.27698 7.22223 -18.9673 -1.15045 -10.4277 39.7444 0.740744 12.3004 -35.2835 -34.2515 -150.424 21.836 0.519344 12.6919 4.51788 41.9984 172.72 176.958 -56.854 -113.906 23.2488 0.72033 13.5004 2.15874 23.2912 174.008 1.82194 -25.3804 172.562 -25.3906 -1.26533 -1.07944 36.5995 -21.7374 -166.718 171.618 -26.4874 174.622 -35.6692 -1.23125 -1.40675 30.0034 -21.6601 -173.09 
5.94884 12.1436 34.6284 -76.3487 -69.3806 -167.899 -4.07514 -2.75327 -4.51289 -16.0955 -1.41111 7.95619 -19.6315 -0.860347 -10.2928 39.0369 0.75066 11.6448 -37.4969 -30.0248 -152.773 21.3871 0.459923 12.4347 5.40768 47.1281 172.095 177.477 -56.8588 -114.184 23.2847 0.725697 13.521 2.23159 23.9143 173.98 1.91981 -24.7906 172.248 -25.0138 -1.26657 -1.06933 36.9879 -21.4367 -166.634 171.222 -26.5738 174.985 -36.0463 -1.20583 -1.41868 29.066 -21.4035 -173.628 
5.94177 12.1449 34.6461 -76.661 -68.4956 -168.476 -3.46773 -3.0192 -4.90648 -16.6875 -1.70783 9.22878 -20.2959 -0.58173 -9.99379 37.6412 0.286831 9.94706 -39.7044 -27.851 -154.037 19.3064 0.208816 11.2367 6.00824 50.1098 171.644 179.886 -57.99 -112.352 23.5433 0.76474 13.6685 2.12382 22.9614 174.023 2.08316 -24.5625 172.411 -25.1986 -1.2846 -1.06733 37.8371 -21.0891 -166.417 170.954 -26.6298 174.799 -35.7666 -1.17948 -1.40916 28.5268 -20.7508 -174.116 
5.92611 12.1455 34.6574 -76.9974 -67.8188 -168.941 -2.99012 -2.18081 -4.70953 -17.4554 -1.579 9.73799 -20.9737 -0.260659 -11.5519 37.2474 0.150485 10.1891 -40.0877 -29.3987 -156.243 19.6432 0.247928 11.4304 5.85053 49.3609 171.764 -178.601 -57.8086 -111.374 23.8198 0.807531 13.8262 2.05358 22.2827 174.053 2.09575 -24.6639 172.325 -25.1616 -1.29313 -1.07141 38.585 -21.1933 -165.916 170.67 -27.1695 174.616 -35.6407 -1.15807 -1.40454 27.9058 -20.8107 -174.351 
5.91367 12.1456 34.6754 -77.4383 -67.2563 -169.361 -2.6316 -2.4299 -5.43827 -18.5465 -1.88143 10.8105 -21.1152 -0.14406 -11.1005 37.5857 0.0604189 8.62478 -38.5517 -31.7424 -156.129 20.0724 0.296903 11.6781 5.30731 46.5942 172.168 -177.581 -58.5613 -111.4 24.0738 0.846954 13.9708 2.00149 21.7774 174.073 1.82388 -25.3254 172.001 -25.0752 -1.29193 -1.07704 39.0722 -21.9124 -165.106 170.219 -27.4732 174.591 -35.7146 -1.13507 -1.4066 27.1405 -20.6523 -174.733 
5.89184 12.1399 34.6846 -77.5601 -66.6254 -169.698 -2.65125 -2.39255 -5.14462 -18.5991 -1.8834 10.9043 -21.0352 0.0531828 -11.5831 37.6148 0.323903 8.66266 -36.4187 -34.3321 -154.554 20.7492 0.378424 12.0673 4.75824 43.4751 172.557 -175.7 -59.0749 -109.937 24.3418 0.889715 14.1235 1.89294 20.7117 174.116 1.93247 -23.7522 172.266 -25.462 -1.30564 -1.07734 38.7883 -21.557 -165.553 170.038 -27.3187 174.624 -35.3188 -1.09463 -1.39272 25.9122 -20.5284 -175.253 
5.87163 12.1406 34.6997 -77.6522 -65.9359 -169.975 -2.11765 -2.25459 -5.32823 -19.1907 -1.95624 11.2862 -21.2492 -0.0925643 -11.3641 38.5136 -0.100013 7.75344 -35.6791 -34.5863 -153.825 20.5462 0.353619 11.951 4.64159 42.7664 172.636 -174.063 -58.5164 -108.662 24.4823 0.912334 14.2034 1.87141 20.483 174.124 2.09822 -22.6264 172.481 -25.4405 -1.30251 -1.0768 38.4488 -21.6811 -165.67 170.307 -27.3486 174.723 -35.3393 -1.10967 -1.39478 26.793 -18.9623 -175.484 
5.83714 12.1345 34.7124 -77.924 -65.4118 -170.342 -1.85409 -2.00712 -5.43501 -19.1848 -1.94787 11.6027 -20.9339 -0.0207285 -11.7452 38.3489 -0.105117 7.53219 -35.5511 -33.8813 -153.316 20.3204 0.326385 11.8208 4.66866 42.9312 172.618 -173.771 -57.4389 -108.208 24.3009 0.883174 14.1004 1.94717 21.1512 174.098 1.96537 -22.114 172.496 -25.2688 -1.29733 -1.07287 38.3741 -21.8013 -165.617 169.777 -27.7471 174.652 -35.408 -1.08866 -1.40008 25.8988 -19.1849 -175.729 
5.79389 12.1353 34.7215 -78.3054 -64.9 -170.821 -1.58258 -1.71103 -5.56796 -19.3946 -1.94208 11.9498 -20.8581 -0.145804 -11.8702 38.802 -0.417303 7.19169 -34.4591 -34.4693 -152.556 20.3201 0.326409 11.821 4.51368 41.972 172.723 -171.825 -56.4981 -106.855 24.4456 0.906441 14.1827 1.94549 21.1217 174.098 1.90429 -21.962 172.456 -25.0547 -1.30113 -1.06799 38.7199 -21.562 -165.568 169.407 -28.2422 174.653 -35.4591 -1.09676 -1.39978 26.2577 -18.7715 -175.747 
5.73929 12.1146 34.726 -77.7896 -64.4962 -170.419 -1.11147 -2.95643 -6.29942 -19.6751 -2.46767 12.6761 -19.954 -0.190474 -9.85593 38.6384 -0.257494 5.04555 -32.0989 -35.4437 -150.236 19.9848 0.28655 11.6269 4.24313 40.2213 172.9 -170.325 -57.9764 -106.668 24.4302 0.903968 14.1738 1.95985 21.2405 174.093 1.76054 -21.5378 172.117 -25.768 -1.33213 -1.08304 39.3682 -21.0258 -165.607 169.687 -28.723 174.849 -34.7819 -1.09324 -1.37359 26.3433 -19.5419 -175.414 
5.67418 12.1261 34.7318 -78.5602 -64.531 -171.333 -0.803781 -3.09725 -6.44983 -20.1597 -2.63145 13.1613 -20.0349 -0.313172 -9.62846 39.2538 -0.715238 3.95116 -31.9764 -36.4197 -151.012 20.0082 0.289546 11.6411 4.13009 39.4615 172.973 -169.145 -58.2152 -106.424 24.5307 0.920329 14.2309 1.93358 20.9964 174.102 1.44394 -20.4837 172.356 -25.5181 -1.31291 -1.07821 38.198 -21.1875 -166.168 169.186 -28.8941 174.909 -34.7407 -1.07284 -1.37423 25.4105 -19.7828 -175.66 
5.60774 12.1225 34.7405 -78.4665 -64.514 -171.44 0.121 -2.97692 -6.57745 -20.6036 -2.73748 13.6454 -19.8291 -0.323301 -10.3874 38.857 -1.05849 3.77752 -31.949 -37.859 -151.709 20.1486 0.305956 11.7219 3.99092 38.5028 173.06 -168.566 -57.8897 -106.264 24.7406 0.954508 14.3502 1.87209 20.4342 174.124 1.32436 -20.5163 172.304 -25.5395 -1.32705 -1.07914 38.9781 -20.3447 -166.326 169.14 -27.948 175.302 -34.5369 -1.07396 -1.36791 25.4495 -19.5414 -175.717 
5.55611 12.1423 34.7519 -78.9487 -64.0233 -172.31 0.663059 -2.87073 -6.78774 -21.0018 -2.81487 13.974 -19.3497 -0.498401 -10.6335 38.5737 -1.55512 3.34092 -30.9154 -38.5175 -150.903 20.3294 0.327257 11.8255 3.83116 37.3695 173.159 -168.071 -57.0406 -106.326 24.9387 0.987441 14.4625 1.81495 19.9095 174.143 1.76047 -21.4836 172.444 -24.4096 -1.30585 -1.05619 39.9973 -20.8091 -165.335 168.136 -23.3261 175.941 -36.0595 -1.11055 -1.42409 26.082 -15.7919 -176.767 
5.53533 12.1685 34.7564 -79.372 -62.9726 -173.617 1.0611 -2.33704 -6.78429 -20.5862 -2.63384 13.9127 -18.5315 -0.57354 -11.5023 37.3803 -1.74119 3.97121 -29.4828 -38.8748 -149.151 20.8308 0.388583 12.1141 3.67068 36.1957 173.255 -166.95 -55.5301 -105.276 25.0932 1.01325 14.5507 1.8041 19.8161 174.146 2.77858 -23.041 173.145 -23.033 -1.28825 -1.03673 42.4154 -21.1165 -163.545 165.542 -17.4111 175.448 -38.6108 -1.18918 -1.47195 26.6729 -13.6843 -177.316 
5.54251 12.2378 34.7314 -78.5421 -62.7718 -173.571 1.98483 -3.01685 -7.11668 -20.0765 -2.61535 12.6606 -19.3979 -0.690848 -11.1149 38.5684 -2.02213 3.79151 -34.8147 -28.4673 -155.256 20.6599 0.36829 12.0163 5.69271 48.5873 171.883 -169.647 -54.2221 -107.793 24.4453 0.906459 14.1823 1.96267 21.3837 174.086 4.90651 -25.6344 174.012 -20.4693 -1.20946 -1.015 43.7713 -21.8608 -161.868 163.304 -15.4552 174.57 -39.2075 -1.29286 -1.48231 29.6585 -14.3355 -176.104 
5.5804 12.2743 34.6688 -78.068 -63.5659 -174.102 2.03745 -4.10584 -7.24771 -19.3307 -2.74556 11.8305 -19.2818 -0.855184 -10.6638 38.7236 -2.42489 2.981 -34.8434 -30.8295 -154.326 20.2507 0.317694 11.7803 5.42314 47.2094 172.083 -170.998 -52.818 -108.684 23.9085 0.821146 13.8775 2.01702 21.9224 174.063 6.4451 -29.2063 175.056 -19.0385 -1.16391 -1.01303 45.6572 -22.8059 -159.749 160.924 -17.099 173.225 -36.8393 -1.37976 -1.43765 33.5933 -18.3745 -172.709 
5.63314 12.2873 34.5988 -78.024 -63.9538 -175.059 2.14741 -4.9156 -6.92995 -18.6853 -2.7763 10.7981 -19.4441 -0.644337 -11.4654 38.9856 -1.80522 4.45714 -30.1428 -38.1034 -150.702 21.9663 0.537795 12.7658 4.15352 39.6204 172.958 -172.352 -52.4613 -109.21 23.8859 0.817669 13.8644 1.96413 21.4717 174.082 7.42405 -29.9515 176.29 -19.1072 -1.18045 -1.01731 46.5795 -23.1304 -158.963 158.542 -19.722 172.397 -33.3976 -1.36348 -1.3426 35.1204 -21.6417 -170.249 
5.70286 12.2987 34.5331 -77.7368 -62.9906 -174.885 2.45861 -4.89505 -7.71045 -18.1529 -2.68226 10.3599 -19.466 -0.936152 -9.94812 39.1528 -2.35213 3.06243 -33.4026 -36.3037 -152.718 20.9686 0.406056 12.1938 4.70502 43.1544 172.593 -174.105 -52.8558 -110.468 24.1454 0.858284 14.0114 2.01847 21.9296 174.064 9.39861 -29.7991 176.876 -17.071 -1.10615 -1.0093 46.3082 -23.4869 -158.623 156.363 -21.1388 172.752 -31.7946 -1.30563 -1.2726 34.2939 -24.4728 -169.293 
5.78851 12.316 34.4481 -77.2897 -61.353 -174.481 2.66745 -4.30973 -8.24726 -17.7065 -2.45946 10.1243 -19.052 -0.898464 -9.84698 38.8203 -2.14913 3.1668 -25.486 -43.4469 -146.183 23.2842 0.732569 13.519 3.42668 34.3399 173.397 -174.545 -53.4952 -110.832 24.2196 0.870152 14.0535 1.87943 20.5692 174.119 12.751 -29.5499 177.572 -13.275 -0.950397 -1.0037 46.1057 -24.2831 -157.535 154.995 -22.887 173.033 -30.9879 -1.35244 -1.23931 36.9117 -24.7124 -167.742 
